<?xml version="1.0" encoding="UTF-8" standalone="no"?>
<!DOCTYPE svg PUBLIC "-//W3C//DTD SVG 1.1//EN"
 "http://www.w3.org/Graphics/SVG/1.1/DTD/svg11.dtd">
<!-- Generated by graphviz version 9.0.0 (20230911.1827)
 -->
<!-- Pages: 1 -->
<svg width="864pt" height="57pt"
 viewBox="0.00 0.00 864.00 57.07" xmlns="http://www.w3.org/2000/svg" xmlns:xlink="http://www.w3.org/1999/xlink">
<g id="graph0" class="graph" transform="scale(0.343957 0.343957) rotate(0) translate(4 161.93)">
<polygon fill="white" stroke="none" points="-4,4 -4,-161.93 2507.95,-161.93 2507.95,4 -4,4"/>
<g id="clust2" class="cluster">
<title>cluster_main</title>
<polygon fill="none" stroke="black" points="508.75,-73.93 508.75,-149.93 2203.09,-149.93 2203.09,-73.93 508.75,-73.93"/>
<text text-anchor="middle" x="1355.92" y="-132.63" font-family="Times New Roman,serif" font-size="14.00">Main Network</text>
</g>
<g id="clust1" class="cluster">
<title>cluster_lstm</title>
<polygon fill="none" stroke="black" points="236.25,-38.93 236.25,-118.93 487.75,-118.93 487.75,-38.93 236.25,-38.93"/>
<text text-anchor="middle" x="362" y="-101.63" font-family="Times New Roman,serif" font-size="14.00">LSTM (2 layers)</text>
</g>
<!-- input -->
<g id="node1" class="node">
<title>input</title>
<polygon fill="none" stroke="black" points="207.25,-86.68 0,-86.68 0,-47.18 207.25,-47.18 207.25,-86.68"/>
<text text-anchor="middle" x="103.62" y="-69.38" font-family="Times New Roman,serif" font-size="14.00">Input Sequence</text>
<text text-anchor="middle" x="103.62" y="-53.63" font-family="Times New Roman,serif" font-size="14.00">(x, x_dot, theta, theta_dot, action)</text>
</g>
<!-- lstm1 -->
<g id="node2" class="node">
<title>lstm1</title>
<polygon fill="none" stroke="black" points="343.5,-86.68 244.25,-86.68 244.25,-47.18 343.5,-47.18 343.5,-86.68"/>
<text text-anchor="middle" x="293.88" y="-69.38" font-family="Times New Roman,serif" font-size="14.00">LSTM Layer 1</text>
<text text-anchor="middle" x="293.88" y="-53.63" font-family="Times New Roman,serif" font-size="14.00">128 units</text>
</g>
<!-- input&#45;&gt;lstm1 -->
<g id="edge12" class="edge">
<title>input&#45;&gt;lstm1</title>
<path fill="none" stroke="black" d="M207.56,-66.93C216.1,-66.93 224.54,-66.93 232.59,-66.93"/>
<polygon fill="black" stroke="black" points="232.58,-70.43 242.58,-66.93 232.58,-63.43 232.58,-70.43"/>
</g>
<!-- lstm2 -->
<g id="node3" class="node">
<title>lstm2</title>
<polygon fill="none" stroke="black" points="479.75,-86.68 380.5,-86.68 380.5,-47.18 479.75,-47.18 479.75,-86.68"/>
<text text-anchor="middle" x="430.12" y="-69.38" font-family="Times New Roman,serif" font-size="14.00">LSTM Layer 2</text>
<text text-anchor="middle" x="430.12" y="-53.63" font-family="Times New Roman,serif" font-size="14.00">128 units</text>
</g>
<!-- lstm1&#45;&gt;lstm2 -->
<g id="edge1" class="edge">
<title>lstm1&#45;&gt;lstm2</title>
<path fill="none" stroke="black" d="M343.72,-66.93C351.87,-66.93 360.4,-66.93 368.79,-66.93"/>
<polygon fill="black" stroke="black" points="368.58,-70.43 378.58,-66.93 368.58,-63.43 368.58,-70.43"/>
</g>
<!-- linear1 -->
<g id="node4" class="node">
<title>linear1</title>
<polygon fill="none" stroke="black" points="642.25,-117.93 516.75,-117.93 516.75,-81.93 642.25,-81.93 642.25,-117.93"/>
<text text-anchor="middle" x="579.5" y="-94.51" font-family="Times New Roman,serif" font-size="14.00">Linear (128 → 512)</text>
</g>
<!-- lstm2&#45;&gt;linear1 -->
<g id="edge13" class="edge">
<title>lstm2&#45;&gt;linear1</title>
<path fill="none" stroke="black" d="M480.2,-77.92C488.23,-79.72 496.71,-81.62 505.18,-83.51"/>
<polygon fill="black" stroke="black" points="504.27,-86.9 514.79,-85.67 505.8,-80.06 504.27,-86.9"/>
</g>
<!-- output -->
<g id="node15" class="node">
<title>output</title>
<polygon fill="none" stroke="black" points="2322.34,-77.93 2232.09,-77.93 2232.09,-41.93 2322.34,-41.93 2322.34,-77.93"/>
<text text-anchor="middle" x="2277.22" y="-54.51" font-family="Times New Roman,serif" font-size="14.00">Output Layer</text>
</g>
<!-- lstm2&#45;&gt;output -->
<g id="edge17" class="edge">
<title>lstm2&#45;&gt;output</title>
<path fill="none" stroke="red" stroke-dasharray="5,2" d="M480.05,-57.43C508.64,-52.68 545.48,-47.93 578.5,-47.93 578.5,-47.93 578.5,-47.93 2133.34,-47.93 2162.18,-47.93 2194.18,-50.39 2220.57,-53.08"/>
<polygon fill="red" stroke="red" points="2220.07,-56.55 2230.39,-54.12 2220.81,-49.59 2220.07,-56.55"/>
<text text-anchor="middle" x="1368.62" y="-50.38" font-family="Times New Roman,serif" font-size="14.00">Residual</text>
</g>
<!-- silu1 -->
<g id="node5" class="node">
<title>silu1</title>
<ellipse fill="none" stroke="black" cx="709.36" cy="-99.93" rx="30.11" ry="18"/>
<text text-anchor="middle" x="709.36" y="-94.51" font-family="Times New Roman,serif" font-size="14.00">SiLU</text>
</g>
<!-- linear1&#45;&gt;silu1 -->
<g id="edge2" class="edge">
<title>linear1&#45;&gt;silu1</title>
<path fill="none" stroke="black" d="M642.55,-99.93C651.1,-99.93 659.7,-99.93 667.73,-99.93"/>
<polygon fill="black" stroke="black" points="667.49,-103.43 677.49,-99.93 667.49,-96.43 667.49,-103.43"/>
</g>
<!-- ln1 -->
<g id="node6" class="node">
<title>ln1</title>
<polygon fill="none" stroke="black" points="851.5,-117.93 776.46,-99.93 851.5,-81.93 926.54,-99.93 851.5,-117.93"/>
<text text-anchor="middle" x="851.5" y="-94.51" font-family="Times New Roman,serif" font-size="14.00">LayerNorm</text>
</g>
<!-- silu1&#45;&gt;ln1 -->
<g id="edge3" class="edge">
<title>silu1&#45;&gt;ln1</title>
<path fill="none" stroke="black" d="M739.73,-99.93C746.8,-99.93 754.7,-99.93 762.96,-99.93"/>
<polygon fill="black" stroke="black" points="762.86,-103.43 772.86,-99.93 762.86,-96.43 762.86,-103.43"/>
</g>
<!-- dropout -->
<g id="node7" class="node">
<title>dropout</title>
<polygon fill="none" stroke="black" points="1051.28,-117.93 963.54,-99.93 1051.28,-81.93 1139.02,-99.93 1051.28,-117.93"/>
<text text-anchor="middle" x="1051.28" y="-94.51" font-family="Times New Roman,serif" font-size="14.00">Dropout (0.2)</text>
</g>
<!-- ln1&#45;&gt;dropout -->
<g id="edge4" class="edge">
<title>ln1&#45;&gt;dropout</title>
<path fill="none" stroke="black" d="M928.4,-99.93C935.48,-99.93 942.72,-99.93 949.97,-99.93"/>
<polygon fill="black" stroke="black" points="949.85,-103.43 959.85,-99.93 949.85,-96.43 949.85,-103.43"/>
</g>
<!-- linear2 -->
<g id="node8" class="node">
<title>linear2</title>
<polygon fill="none" stroke="black" points="1301.52,-117.93 1176.02,-117.93 1176.02,-81.93 1301.52,-81.93 1301.52,-117.93"/>
<text text-anchor="middle" x="1238.77" y="-94.51" font-family="Times New Roman,serif" font-size="14.00">Linear (512 → 512)</text>
</g>
<!-- dropout&#45;&gt;linear2 -->
<g id="edge5" class="edge">
<title>dropout&#45;&gt;linear2</title>
<path fill="none" stroke="black" d="M1141.49,-99.93C1149.04,-99.93 1156.63,-99.93 1164.04,-99.93"/>
<polygon fill="black" stroke="black" points="1164.01,-103.43 1174.01,-99.93 1164.01,-96.43 1164.01,-103.43"/>
</g>
<!-- silu2 -->
<g id="node9" class="node">
<title>silu2</title>
<ellipse fill="none" stroke="black" cx="1368.62" cy="-99.93" rx="30.11" ry="18"/>
<text text-anchor="middle" x="1368.62" y="-94.51" font-family="Times New Roman,serif" font-size="14.00">SiLU</text>
</g>
<!-- linear2&#45;&gt;silu2 -->
<g id="edge6" class="edge">
<title>linear2&#45;&gt;silu2</title>
<path fill="none" stroke="black" d="M1301.82,-99.93C1310.37,-99.93 1318.97,-99.93 1326.99,-99.93"/>
<polygon fill="black" stroke="black" points="1326.76,-103.43 1336.76,-99.93 1326.76,-96.43 1326.76,-103.43"/>
</g>
<!-- ln2 -->
<g id="node10" class="node">
<title>ln2</title>
<polygon fill="none" stroke="black" points="1510.77,-117.93 1435.73,-99.93 1510.77,-81.93 1585.81,-99.93 1510.77,-117.93"/>
<text text-anchor="middle" x="1510.77" y="-94.51" font-family="Times New Roman,serif" font-size="14.00">LayerNorm</text>
</g>
<!-- silu2&#45;&gt;ln2 -->
<g id="edge7" class="edge">
<title>silu2&#45;&gt;ln2</title>
<path fill="none" stroke="black" d="M1399,-99.93C1406.07,-99.93 1413.97,-99.93 1422.23,-99.93"/>
<polygon fill="black" stroke="black" points="1422.13,-103.43 1432.13,-99.93 1422.13,-96.43 1422.13,-103.43"/>
</g>
<!-- linear3 -->
<g id="node11" class="node">
<title>linear3</title>
<polygon fill="none" stroke="black" points="1748.3,-117.93 1622.81,-117.93 1622.81,-81.93 1748.3,-81.93 1748.3,-117.93"/>
<text text-anchor="middle" x="1685.56" y="-94.51" font-family="Times New Roman,serif" font-size="14.00">Linear (512 → 256)</text>
</g>
<!-- ln2&#45;&gt;linear3 -->
<g id="edge8" class="edge">
<title>ln2&#45;&gt;linear3</title>
<path fill="none" stroke="black" d="M1587.81,-99.93C1595.5,-99.93 1603.31,-99.93 1610.98,-99.93"/>
<polygon fill="black" stroke="black" points="1610.97,-103.43 1620.97,-99.93 1610.97,-96.43 1610.97,-103.43"/>
</g>
<!-- silu3 -->
<g id="node12" class="node">
<title>silu3</title>
<ellipse fill="none" stroke="black" cx="1815.41" cy="-99.93" rx="30.11" ry="18"/>
<text text-anchor="middle" x="1815.41" y="-94.51" font-family="Times New Roman,serif" font-size="14.00">SiLU</text>
</g>
<!-- linear3&#45;&gt;silu3 -->
<g id="edge9" class="edge">
<title>linear3&#45;&gt;silu3</title>
<path fill="none" stroke="black" d="M1748.61,-99.93C1757.16,-99.93 1765.75,-99.93 1773.78,-99.93"/>
<polygon fill="black" stroke="black" points="1773.55,-103.43 1783.55,-99.93 1773.55,-96.43 1773.55,-103.43"/>
</g>
<!-- ln3 -->
<g id="node13" class="node">
<title>ln3</title>
<polygon fill="none" stroke="black" points="1957.55,-117.93 1882.52,-99.93 1957.55,-81.93 2032.59,-99.93 1957.55,-117.93"/>
<text text-anchor="middle" x="1957.55" y="-94.51" font-family="Times New Roman,serif" font-size="14.00">LayerNorm</text>
</g>
<!-- silu3&#45;&gt;ln3 -->
<g id="edge10" class="edge">
<title>silu3&#45;&gt;ln3</title>
<path fill="none" stroke="black" d="M1845.79,-99.93C1852.85,-99.93 1860.76,-99.93 1869.01,-99.93"/>
<polygon fill="black" stroke="black" points="1868.92,-103.43 1878.92,-99.93 1868.92,-96.43 1868.92,-103.43"/>
</g>
<!-- linear4 -->
<g id="node14" class="node">
<title>linear4</title>
<polygon fill="none" stroke="black" points="2195.09,-117.93 2069.59,-117.93 2069.59,-81.93 2195.09,-81.93 2195.09,-117.93"/>
<text text-anchor="middle" x="2132.34" y="-94.51" font-family="Times New Roman,serif" font-size="14.00">Linear (256 → 128)</text>
</g>
<!-- ln3&#45;&gt;linear4 -->
<g id="edge11" class="edge">
<title>ln3&#45;&gt;linear4</title>
<path fill="none" stroke="black" d="M2034.59,-99.93C2042.29,-99.93 2050.1,-99.93 2057.77,-99.93"/>
<polygon fill="black" stroke="black" points="2057.75,-103.43 2067.75,-99.93 2057.75,-96.43 2057.75,-103.43"/>
</g>
<!-- linear4&#45;&gt;output -->
<g id="edge14" class="edge">
<title>linear4&#45;&gt;output</title>
<path fill="none" stroke="black" d="M2195.18,-82.62C2203.78,-80.21 2212.57,-77.75 2221.03,-75.38"/>
<polygon fill="black" stroke="black" points="2221.79,-78.8 2230.48,-72.74 2219.91,-72.06 2221.79,-78.8"/>
</g>
<!-- force_output -->
<g id="node16" class="node">
<title>force_output</title>
<ellipse fill="none" stroke="black" cx="2431.64" cy="-91.93" rx="61.04" ry="18"/>
<text text-anchor="middle" x="2431.64" y="-86.51" font-family="Times New Roman,serif" font-size="14.00">Force Output</text>
</g>
<!-- output&#45;&gt;force_output -->
<g id="edge15" class="edge">
<title>output&#45;&gt;force_output</title>
<path fill="none" stroke="black" d="M2322.71,-69.27C2337.42,-72.36 2354.05,-75.85 2369.77,-79.15"/>
<polygon fill="black" stroke="black" points="2369.02,-82.57 2379.53,-81.2 2370.46,-75.72 2369.02,-82.57"/>
</g>
<!-- friction_output -->
<g id="node17" class="node">
<title>friction_output</title>
<ellipse fill="none" stroke="black" stroke-dasharray="5,2" cx="2431.64" cy="-27.93" rx="72.3" ry="27.93"/>
<text text-anchor="middle" x="2431.64" y="-30.38" font-family="Times New Roman,serif" font-size="14.00">Friction Output</text>
<text text-anchor="middle" x="2431.64" y="-14.63" font-family="Times New Roman,serif" font-size="14.00">(optional)</text>
</g>
<!-- output&#45;&gt;friction_output -->
<g id="edge16" class="edge">
<title>output&#45;&gt;friction_output</title>
<path fill="none" stroke="black" stroke-dasharray="5,2" d="M2322.71,-50.59C2333.3,-48.37 2344.88,-45.93 2356.41,-43.52"/>
<polygon fill="black" stroke="black" points="2356.85,-47 2365.92,-41.52 2355.41,-40.15 2356.85,-47"/>
</g>
</g>
</svg>
